<?xml version="1.0" encoding="UTF-8" standalone="no"?>
<!-- Created with Inkscape (http://www.inkscape.org/) -->

<svg
   version="1.1"
   id="svg1"
   width="2666.6667"
   height="2666.6667"
   viewBox="0 0 2666.6667 2666.6667"
   xmlns:xlink="http://www.w3.org/1999/xlink"
   xmlns="http://www.w3.org/2000/svg"
   xmlns:svg="http://www.w3.org/2000/svg">
  <defs
     id="defs1">
    <linearGradient
       x1="0"
       y1="0"
       x2="1"
       y2="0"
       gradientUnits="userSpaceOnUse"
       gradientTransform="matrix(2582.0449,-2891.0076,-2891.0076,-2582.0449,11.75041,1476.6624)"
       spreadMethod="pad"
       id="linearGradient4">
      <stop
         style="stop-opacity:1;stop-color:#f28d1d;"
         offset="0"
         id="stop1" />
      <stop
         style="stop-opacity:1;stop-color:#a40054;"
         offset="0.63154391"
         id="stop2" />
      <stop
         style="stop-opacity:1;stop-color:#a40054;"
         offset="0.990444"
         id="stop3" />
      <stop
         style="stop-opacity:1;stop-color:#a40054;"
         offset="1"
         id="stop4" />
    </linearGradient>
    <linearGradient
       x1="0"
       y1="0"
       x2="1"
       y2="0"
       gradientUnits="userSpaceOnUse"
       gradientTransform="matrix(2582.0449,-2891.0076,-2891.0076,-2582.0449,196.49147,1641.6602)"
       spreadMethod="pad"
       id="linearGradient8">
      <stop
         style="stop-opacity:1;stop-color:#f28d1d;"
         offset="0"
         id="stop5" />
      <stop
         style="stop-opacity:1;stop-color:#a40054;"
         offset="0.63154391"
         id="stop6" />
      <stop
         style="stop-opacity:1;stop-color:#a40054;"
         offset="0.990444"
         id="stop7" />
      <stop
         style="stop-opacity:1;stop-color:#a40054;"
         offset="1"
         id="stop8" />
    </linearGradient>
    <linearGradient
       x1="0"
       y1="0"
       x2="1"
       y2="0"
       gradientUnits="userSpaceOnUse"
       gradientTransform="matrix(2582.0449,-2891.0076,-2891.0076,-2582.0449,-19.747679,1448.5305)"
       spreadMethod="pad"
       id="linearGradient12">
      <stop
         style="stop-opacity:1;stop-color:#f28d1d;"
         offset="0"
         id="stop9" />
      <stop
         style="stop-opacity:1;stop-color:#a40054;"
         offset="0.63154391"
         id="stop10" />
      <stop
         style="stop-opacity:1;stop-color:#a40054;"
         offset="0.990444"
         id="stop11" />
      <stop
         style="stop-opacity:1;stop-color:#a40054;"
         offset="1"
         id="stop12" />
    </linearGradient>
    <linearGradient
       x1="0"
       y1="0"
       x2="1"
       y2="0"
       gradientUnits="userSpaceOnUse"
       gradientTransform="matrix(2582.0449,-2891.0076,-2891.0076,-2582.0449,165.89384,1614.3325)"
       spreadMethod="pad"
       id="linearGradient16">
      <stop
         style="stop-opacity:1;stop-color:#f28d1d;"
         offset="0"
         id="stop13" />
      <stop
         style="stop-opacity:1;stop-color:#a40054;"
         offset="0.63154391"
         id="stop14" />
      <stop
         style="stop-opacity:1;stop-color:#a40054;"
         offset="0.990444"
         id="stop15" />
      <stop
         style="stop-opacity:1;stop-color:#a40054;"
         offset="1"
         id="stop16" />
    </linearGradient>
    <linearGradient
       x1="0"
       y1="0"
       x2="1"
       y2="0"
       gradientUnits="userSpaceOnUse"
       gradientTransform="matrix(2582.0449,-2891.0076,-2891.0076,-2582.0449,-63.247246,1409.6798)"
       spreadMethod="pad"
       id="linearGradient20">
      <stop
         style="stop-opacity:1;stop-color:#f28d1d;"
         offset="0"
         id="stop17" />
      <stop
         style="stop-opacity:1;stop-color:#a40054;"
         offset="0.63154391"
         id="stop18" />
      <stop
         style="stop-opacity:1;stop-color:#a40054;"
         offset="0.990444"
         id="stop19" />
      <stop
         style="stop-opacity:1;stop-color:#a40054;"
         offset="1"
         id="stop20" />
    </linearGradient>
    <linearGradient
       x1="0"
       y1="0"
       x2="1"
       y2="0"
       gradientUnits="userSpaceOnUse"
       gradientTransform="matrix(4629.0181,-5182.9175,-5182.9175,-4629.0181,-215.09644,2602.1555)"
       spreadMethod="pad"
       id="linearGradient24">
      <stop
         style="stop-opacity:1;stop-color:#f28d1d;"
         offset="0"
         id="stop21" />
      <stop
         style="stop-opacity:1;stop-color:#a40054;"
         offset="0.63154391"
         id="stop22" />
      <stop
         style="stop-opacity:1;stop-color:#a40054;"
         offset="0.990444"
         id="stop23" />
      <stop
         style="stop-opacity:1;stop-color:#a40054;"
         offset="1"
         id="stop24" />
    </linearGradient>
    <linearGradient
       x1="0"
       y1="0"
       x2="1"
       y2="0"
       gradientUnits="userSpaceOnUse"
       gradientTransform="matrix(4629.0181,-5182.9175,-5182.9175,-4629.0181,-134.03297,2532.7686)"
       spreadMethod="pad"
       id="linearGradient28">
      <stop
         style="stop-opacity:1;stop-color:#f28d1d;"
         offset="0"
         id="stop25" />
      <stop
         style="stop-opacity:1;stop-color:#a40054;"
         offset="0.63154391"
         id="stop26" />
      <stop
         style="stop-opacity:1;stop-color:#a40054;"
         offset="0.990444"
         id="stop27" />
      <stop
         style="stop-opacity:1;stop-color:#a40054;"
         offset="1"
         id="stop28" />
    </linearGradient>
    <linearGradient
       x1="0"
       y1="0"
       x2="1"
       y2="0"
       gradientUnits="userSpaceOnUse"
       gradientTransform="matrix(4629.0181,-5182.9175,-5182.9175,-4629.0181,-289.07684,2632.8066)"
       spreadMethod="pad"
       id="linearGradient32">
      <stop
         style="stop-opacity:1;stop-color:#f28d1d;"
         offset="0"
         id="stop29" />
      <stop
         style="stop-opacity:1;stop-color:#a40054;"
         offset="0.63154391"
         id="stop30" />
      <stop
         style="stop-opacity:1;stop-color:#a40054;"
         offset="0.990444"
         id="stop31" />
      <stop
         style="stop-opacity:1;stop-color:#a40054;"
         offset="1"
         id="stop32" />
    </linearGradient>
    <linearGradient
       x1="0"
       y1="0"
       x2="1"
       y2="0"
       gradientUnits="userSpaceOnUse"
       gradientTransform="matrix(1603.6569,-1795.5474,-1795.5474,-1603.6569,904.22754,1593.01)"
       spreadMethod="pad"
       id="linearGradient36">
      <stop
         style="stop-opacity:1;stop-color:#f28d1d;"
         offset="0"
         id="stop33" />
      <stop
         style="stop-opacity:1;stop-color:#a40054;"
         offset="0.63154391"
         id="stop34" />
      <stop
         style="stop-opacity:1;stop-color:#a40054;"
         offset="0.990444"
         id="stop35" />
      <stop
         style="stop-opacity:1;stop-color:#a40054;"
         offset="1"
         id="stop36" />
    </linearGradient>
    <linearGradient
       x1="0"
       y1="0"
       x2="1"
       y2="0"
       gradientUnits="userSpaceOnUse"
       gradientTransform="matrix(4248.605,-4756.9849,-4756.9849,-4248.605,53.146076,2777.4116)"
       spreadMethod="pad"
       id="linearGradient40">
      <stop
         style="stop-opacity:1;stop-color:#f28d1d;"
         offset="0"
         id="stop37" />
      <stop
         style="stop-opacity:1;stop-color:#a40054;"
         offset="0.63154391"
         id="stop38" />
      <stop
         style="stop-opacity:1;stop-color:#a40054;"
         offset="0.990444"
         id="stop39" />
      <stop
         style="stop-opacity:1;stop-color:#a40054;"
         offset="1"
         id="stop40" />
    </linearGradient>
    <linearGradient
       x1="0"
       y1="0"
       x2="1"
       y2="0"
       gradientUnits="userSpaceOnUse"
       gradientTransform="matrix(2582.0449,-2891.0076,-2891.0076,-2582.0449,67.067306,1526.0675)"
       spreadMethod="pad"
       id="linearGradient44">
      <stop
         style="stop-opacity:1;stop-color:#f28d1d;"
         offset="0"
         id="stop41" />
      <stop
         style="stop-opacity:1;stop-color:#a40054;"
         offset="0.63154391"
         id="stop42" />
      <stop
         style="stop-opacity:1;stop-color:#a40054;"
         offset="0.990444"
         id="stop43" />
      <stop
         style="stop-opacity:1;stop-color:#a40054;"
         offset="1"
         id="stop44" />
    </linearGradient>
    <linearGradient
       x1="0"
       y1="0"
       x2="1"
       y2="0"
       gradientUnits="userSpaceOnUse"
       gradientTransform="matrix(2582.0449,-2891.0076,-2891.0076,-2582.0449,220.65077,1663.2375)"
       spreadMethod="pad"
       id="linearGradient48">
      <stop
         style="stop-opacity:1;stop-color:#f28d1d;"
         offset="0"
         id="stop45" />
      <stop
         style="stop-opacity:1;stop-color:#a40054;"
         offset="0.63154391"
         id="stop46" />
      <stop
         style="stop-opacity:1;stop-color:#a40054;"
         offset="0.990444"
         id="stop47" />
      <stop
         style="stop-opacity:1;stop-color:#a40054;"
         offset="1"
         id="stop48" />
    </linearGradient>
    <linearGradient
       x1="0"
       y1="0"
       x2="1"
       y2="0"
       gradientUnits="userSpaceOnUse"
       gradientTransform="matrix(2582.0449,-2891.0076,-2891.0076,-2582.0449,208.45978,1652.3494)"
       spreadMethod="pad"
       id="linearGradient52">
      <stop
         style="stop-opacity:1;stop-color:#f28d1d;"
         offset="0"
         id="stop49" />
      <stop
         style="stop-opacity:1;stop-color:#a40054;"
         offset="0.63154391"
         id="stop50" />
      <stop
         style="stop-opacity:1;stop-color:#a40054;"
         offset="0.990444"
         id="stop51" />
      <stop
         style="stop-opacity:1;stop-color:#a40054;"
         offset="1"
         id="stop52" />
    </linearGradient>
    <linearGradient
       x1="0"
       y1="0"
       x2="1"
       y2="0"
       gradientUnits="userSpaceOnUse"
       gradientTransform="matrix(2582.0449,-2891.0076,-2891.0076,-2582.0449,215.28479,1658.4451)"
       spreadMethod="pad"
       id="linearGradient56">
      <stop
         style="stop-opacity:1;stop-color:#f28d1d;"
         offset="0"
         id="stop53" />
      <stop
         style="stop-opacity:1;stop-color:#a40054;"
         offset="0.63154391"
         id="stop54" />
      <stop
         style="stop-opacity:1;stop-color:#a40054;"
         offset="0.990444"
         id="stop55" />
      <stop
         style="stop-opacity:1;stop-color:#a40054;"
         offset="1"
         id="stop56" />
    </linearGradient>
    <linearGradient
       x1="0"
       y1="0"
       x2="1"
       y2="0"
       gradientUnits="userSpaceOnUse"
       gradientTransform="matrix(2582.0449,-2891.0076,-2891.0076,-2582.0449,222.10765,1664.5387)"
       spreadMethod="pad"
       id="linearGradient60">
      <stop
         style="stop-opacity:1;stop-color:#f28d1d;"
         offset="0"
         id="stop57" />
      <stop
         style="stop-opacity:1;stop-color:#a40054;"
         offset="0.63154391"
         id="stop58" />
      <stop
         style="stop-opacity:1;stop-color:#a40054;"
         offset="0.990444"
         id="stop59" />
      <stop
         style="stop-opacity:1;stop-color:#a40054;"
         offset="1"
         id="stop60" />
    </linearGradient>
    <linearGradient
       x1="0"
       y1="0"
       x2="1"
       y2="0"
       gradientUnits="userSpaceOnUse"
       gradientTransform="matrix(2582.0449,-2891.0076,-2891.0076,-2582.0449,609.50073,2060.4446)"
       spreadMethod="pad"
       id="linearGradient64">
      <stop
         style="stop-opacity:1;stop-color:#f28d1d;"
         offset="0"
         id="stop61" />
      <stop
         style="stop-opacity:1;stop-color:#a40054;"
         offset="0.63154391"
         id="stop62" />
      <stop
         style="stop-opacity:1;stop-color:#a40054;"
         offset="0.990444"
         id="stop63" />
      <stop
         style="stop-opacity:1;stop-color:#a40054;"
         offset="1"
         id="stop64" />
    </linearGradient>
    <linearGradient
       x1="0"
       y1="0"
       x2="1"
       y2="0"
       gradientUnits="userSpaceOnUse"
       gradientTransform="matrix(2582.0449,-2891.0076,-2891.0076,-2582.0449,614.63489,2092.771)"
       spreadMethod="pad"
       id="linearGradient68">
      <stop
         style="stop-opacity:1;stop-color:#f28d1d;"
         offset="0"
         id="stop65" />
      <stop
         style="stop-opacity:1;stop-color:#a40054;"
         offset="0.63154391"
         id="stop66" />
      <stop
         style="stop-opacity:1;stop-color:#a40054;"
         offset="0.990444"
         id="stop67" />
      <stop
         style="stop-opacity:1;stop-color:#a40054;"
         offset="1"
         id="stop68" />
    </linearGradient>
    <linearGradient
       x1="0"
       y1="0"
       x2="1"
       y2="0"
       gradientUnits="userSpaceOnUse"
       gradientTransform="matrix(2582.0449,-2891.0076,-2891.0076,-2582.0449,626.85303,2121.9299)"
       spreadMethod="pad"
       id="linearGradient72">
      <stop
         style="stop-opacity:1;stop-color:#f28d1d;"
         offset="0"
         id="stop69" />
      <stop
         style="stop-opacity:1;stop-color:#a40054;"
         offset="0.63154391"
         id="stop70" />
      <stop
         style="stop-opacity:1;stop-color:#a40054;"
         offset="0.990444"
         id="stop71" />
      <stop
         style="stop-opacity:1;stop-color:#a40054;"
         offset="1"
         id="stop72" />
    </linearGradient>
    <linearGradient
       x1="0"
       y1="0"
       x2="1"
       y2="0"
       gradientUnits="userSpaceOnUse"
       gradientTransform="matrix(2582.0449,-2891.0076,-2891.0076,-2582.0449,480.87448,1856.3348)"
       spreadMethod="pad"
       id="linearGradient76">
      <stop
         style="stop-opacity:1;stop-color:#f28d1d;"
         offset="0"
         id="stop73" />
      <stop
         style="stop-opacity:1;stop-color:#a40054;"
         offset="0.63154391"
         id="stop74" />
      <stop
         style="stop-opacity:1;stop-color:#a40054;"
         offset="0.990444"
         id="stop75" />
      <stop
         style="stop-opacity:1;stop-color:#a40054;"
         offset="1"
         id="stop76" />
    </linearGradient>
    <linearGradient
       x1="0"
       y1="0"
       x2="1"
       y2="0"
       gradientUnits="userSpaceOnUse"
       gradientTransform="matrix(2582.0823,-2891.0493,-2891.0493,-2582.0823,339.00784,1768.9458)"
       spreadMethod="pad"
       id="linearGradient80">
      <stop
         style="stop-opacity:1;stop-color:#f28d1d;"
         offset="0"
         id="stop77" />
      <stop
         style="stop-opacity:1;stop-color:#a40054;"
         offset="0.63154391"
         id="stop78" />
      <stop
         style="stop-opacity:1;stop-color:#a40054;"
         offset="0.990444"
         id="stop79" />
      <stop
         style="stop-opacity:1;stop-color:#a40054;"
         offset="1"
         id="stop80" />
    </linearGradient>
    <linearGradient
       x1="0"
       y1="0"
       x2="1"
       y2="0"
       gradientUnits="userSpaceOnUse"
       gradientTransform="matrix(2582.0449,-2891.0076,-2891.0076,-2582.0449,549.80011,1957.2106)"
       spreadMethod="pad"
       id="linearGradient84">
      <stop
         style="stop-opacity:1;stop-color:#f28d1d;"
         offset="0"
         id="stop81" />
      <stop
         style="stop-opacity:1;stop-color:#a40054;"
         offset="0.63154391"
         id="stop82" />
      <stop
         style="stop-opacity:1;stop-color:#a40054;"
         offset="0.990444"
         id="stop83" />
      <stop
         style="stop-opacity:1;stop-color:#a40054;"
         offset="1"
         id="stop84" />
    </linearGradient>
    <linearGradient
       x1="0"
       y1="0"
       x2="1"
       y2="0"
       gradientUnits="userSpaceOnUse"
       gradientTransform="matrix(2582.0449,-2891.0076,-2891.0076,-2582.0449,260.51898,1698.845)"
       spreadMethod="pad"
       id="linearGradient88">
      <stop
         style="stop-opacity:1;stop-color:#f28d1d;"
         offset="0"
         id="stop85" />
      <stop
         style="stop-opacity:1;stop-color:#a40054;"
         offset="0.63154391"
         id="stop86" />
      <stop
         style="stop-opacity:1;stop-color:#a40054;"
         offset="0.990444"
         id="stop87" />
      <stop
         style="stop-opacity:1;stop-color:#a40054;"
         offset="1"
         id="stop88" />
    </linearGradient>
    <linearGradient
       x1="0"
       y1="0"
       x2="1"
       y2="0"
       gradientUnits="userSpaceOnUse"
       gradientTransform="matrix(2582.0449,-2891.0076,-2891.0076,-2582.0449,383.94354,1809.0792)"
       spreadMethod="pad"
       id="linearGradient92">
      <stop
         style="stop-opacity:1;stop-color:#f28d1d;"
         offset="0"
         id="stop89" />
      <stop
         style="stop-opacity:1;stop-color:#a40054;"
         offset="0.63154391"
         id="stop90" />
      <stop
         style="stop-opacity:1;stop-color:#a40054;"
         offset="0.990444"
         id="stop91" />
      <stop
         style="stop-opacity:1;stop-color:#a40054;"
         offset="1"
         id="stop92" />
    </linearGradient>
    <linearGradient
       x1="0"
       y1="0"
       x2="1"
       y2="0"
       gradientUnits="userSpaceOnUse"
       gradientTransform="matrix(2582.0449,-2891.0076,-2891.0076,-2582.0449,544.93317,1952.8638)"
       spreadMethod="pad"
       id="linearGradient96">
      <stop
         style="stop-opacity:1;stop-color:#f28d1d;"
         offset="0"
         id="stop93" />
      <stop
         style="stop-opacity:1;stop-color:#a40054;"
         offset="0.63154391"
         id="stop94" />
      <stop
         style="stop-opacity:1;stop-color:#a40054;"
         offset="0.990444"
         id="stop95" />
      <stop
         style="stop-opacity:1;stop-color:#a40054;"
         offset="1"
         id="stop96" />
    </linearGradient>
    <linearGradient
       x1="0"
       y1="0"
       x2="1"
       y2="0"
       gradientUnits="userSpaceOnUse"
       gradientTransform="matrix(2582.0449,-2891.0076,-2891.0076,-2582.0449,246.47939,1686.3058)"
       spreadMethod="pad"
       id="linearGradient100">
      <stop
         style="stop-opacity:1;stop-color:#f28d1d;"
         offset="0"
         id="stop97" />
      <stop
         style="stop-opacity:1;stop-color:#a40054;"
         offset="0.63154391"
         id="stop98" />
      <stop
         style="stop-opacity:1;stop-color:#a40054;"
         offset="0.990444"
         id="stop99" />
      <stop
         style="stop-opacity:1;stop-color:#a40054;"
         offset="1"
         id="stop100" />
    </linearGradient>
    <linearGradient
       x1="0"
       y1="0"
       x2="1"
       y2="0"
       gradientUnits="userSpaceOnUse"
       gradientTransform="matrix(2582.0449,-2891.0076,-2891.0076,-2582.0449,430.59082,1850.7412)"
       spreadMethod="pad"
       id="linearGradient104">
      <stop
         style="stop-opacity:1;stop-color:#f28d1d;"
         offset="0"
         id="stop101" />
      <stop
         style="stop-opacity:1;stop-color:#a40054;"
         offset="0.63154391"
         id="stop102" />
      <stop
         style="stop-opacity:1;stop-color:#a40054;"
         offset="0.990444"
         id="stop103" />
      <stop
         style="stop-opacity:1;stop-color:#a40054;"
         offset="1"
         id="stop104" />
    </linearGradient>
    <linearGradient
       x1="0"
       y1="0"
       x2="1"
       y2="0"
       gradientUnits="userSpaceOnUse"
       gradientTransform="matrix(2582.0449,-2891.0076,-2891.0076,-2582.0449,376.72543,1802.6324)"
       spreadMethod="pad"
       id="linearGradient108">
      <stop
         style="stop-opacity:1;stop-color:#f28d1d;"
         offset="0"
         id="stop105" />
      <stop
         style="stop-opacity:1;stop-color:#a40054;"
         offset="0.63154391"
         id="stop106" />
      <stop
         style="stop-opacity:1;stop-color:#a40054;"
         offset="0.990444"
         id="stop107" />
      <stop
         style="stop-opacity:1;stop-color:#a40054;"
         offset="1"
         id="stop108" />
    </linearGradient>
    <linearGradient
       x1="0"
       y1="0"
       x2="1"
       y2="0"
       gradientUnits="userSpaceOnUse"
       gradientTransform="matrix(2582.0449,-2891.0076,-2891.0076,-2582.0449,299.37006,1733.5441)"
       spreadMethod="pad"
       id="linearGradient112">
      <stop
         style="stop-opacity:1;stop-color:#f28d1d;"
         offset="0"
         id="stop109" />
      <stop
         style="stop-opacity:1;stop-color:#a40054;"
         offset="0.63154391"
         id="stop110" />
      <stop
         style="stop-opacity:1;stop-color:#a40054;"
         offset="0.990444"
         id="stop111" />
      <stop
         style="stop-opacity:1;stop-color:#a40054;"
         offset="1"
         id="stop112" />
    </linearGradient>
  </defs>
  <g
     id="layer-MC0">
    <path
       id="path4"
       d="M 450.428,1162.83 V 755.809 c 0,-12.912 10.474,-23.375 23.372,-23.375 v 0 c 12.912,0 23.378,10.463 23.378,23.375 v 0 407.021 c 0,12.917 -10.466,23.374 -23.378,23.374 v 0 c -12.898,0 -23.372,-10.457 -23.372,-23.374"
       transform="matrix(1.3333333,0,0,-1.3333333,0,2666.6667)"
       style="fill:url(#linearGradient4);stroke:none" />
    <path
       id="path8"
       d="m 450.428,1425.996 v -189.662 c 0,-12.912 10.474,-23.375 23.372,-23.375 v 0 c 12.912,0 23.378,10.463 23.378,23.375 v 0 189.662 c 0,12.92 -10.466,23.369 -23.378,23.369 v 0 c -12.898,0 -23.372,-10.449 -23.372,-23.369"
       transform="matrix(1.3333333,0,0,-1.3333333,0,2666.6667)"
       style="fill:url(#linearGradient8);stroke:none" />
    <path
       id="path12"
       d="M 526.082,937.601 V 684.822 c 0,-12.899 10.477,-23.375 23.379,-23.375 v 0 c 12.918,0 23.374,10.476 23.374,23.375 v 0 252.779 c 0,12.898 -10.456,23.368 -23.374,23.368 v 0 c -12.902,0 -23.379,-10.47 -23.379,-23.368"
       transform="matrix(1.3333333,0,0,-1.3333333,0,2666.6667)"
       style="fill:url(#linearGradient12);stroke:none" />
    <path
       id="path16"
       d="m 526.082,1355.016 v -340.298 c 0,-12.906 10.477,-23.374 23.379,-23.374 v 0 c 12.918,0 23.374,10.468 23.374,23.374 v 0 340.298 c 0,12.911 -10.456,23.367 -23.374,23.367 v 0 c -12.902,0 -23.379,-10.456 -23.379,-23.367"
       transform="matrix(1.3333333,0,0,-1.3333333,0,2666.6667)"
       style="fill:url(#linearGradient16);stroke:none" />
    <path
       id="path20"
       d="m 601.757,664.046 v -50.219 c 0,-12.898 10.456,-23.375 23.371,-23.375 v 0 c 12.913,0 23.372,10.477 23.372,23.375 v 0 50.219 c 0,12.898 -10.459,23.368 -23.372,23.368 v 0 c -12.915,0 -23.371,-10.47 -23.371,-23.368"
       transform="matrix(1.3333333,0,0,-1.3333333,0,2666.6667)"
       style="fill:url(#linearGradient20);stroke:none" />
    <path
       id="path24"
       d="M 1350.146,937.601 V 709.308 c 0,-12.898 10.455,-23.375 23.371,-23.375 v 0 c 12.911,0 23.37,10.477 23.37,23.375 v 0 228.293 c 0,12.898 -10.459,23.368 -23.37,23.368 v 0 c -12.916,0 -23.371,-10.47 -23.371,-23.368"
       transform="matrix(1.3333333,0,0,-1.3333333,0,2666.6667)"
       style="fill:url(#linearGradient24);stroke:none" />
    <path
       id="path28"
       d="M 1431.209,868.214 V 639.922 c 0,-12.899 10.456,-23.375 23.371,-23.375 v 0 c 12.912,0 23.37,10.476 23.37,23.375 v 0 228.292 c 0,12.899 -10.458,23.367 -23.37,23.367 v 0 c -12.915,0 -23.371,-10.468 -23.371,-23.367"
       transform="matrix(1.3333333,0,0,-1.3333333,0,2666.6667)"
       style="fill:url(#linearGradient28);stroke:none" />
    <path
       id="path32"
       d="M 1276.165,968.252 V 739.959 c 0,-12.899 10.456,-23.375 23.371,-23.375 v 0 c 12.912,0 23.37,10.476 23.37,23.375 v 0 228.293 c 0,12.898 -10.458,23.367 -23.37,23.367 v 0 c -12.915,0 -23.371,-10.469 -23.371,-23.367"
       transform="matrix(1.3333333,0,0,-1.3333333,0,2666.6667)"
       style="fill:url(#linearGradient32);stroke:none" />
    <path
       id="path36"
       d="m 1431.209,995.871 v -38.13 c 0,-12.899 10.456,-23.375 23.371,-23.375 v 0 c 12.912,0 23.37,10.476 23.37,23.375 v 0 38.13 c 0,12.898 -10.458,23.367 -23.37,23.367 v 0 c -12.915,0 -23.371,-10.469 -23.371,-23.367"
       transform="matrix(1.3333333,0,0,-1.3333333,0,2666.6667)"
       style="fill:url(#linearGradient36);stroke:none" />
    <path
       id="path40"
       d="m 1502.826,1241.482 v -226.763 c 0,-12.899 10.456,-23.375 23.372,-23.375 v 0 c 12.911,0 23.37,10.476 23.37,23.375 v 0 226.763 c 0,12.898 -10.459,23.368 -23.37,23.368 v 0 c -12.916,0 -23.372,-10.47 -23.372,-23.368"
       transform="matrix(1.3333333,0,0,-1.3333333,0,2666.6667)"
       style="fill:url(#linearGradient40);stroke:none" />
    <path
       id="path44"
       d="M 601.757,1067.432 V 735.02 c 0,-12.906 10.456,-23.375 23.371,-23.375 v 0 c 12.913,0 23.372,10.469 23.372,23.375 v 0 332.412 c 0,12.92 -10.459,23.382 -23.372,23.382 v 0 c -12.915,0 -23.371,-10.462 -23.371,-23.382"
       transform="matrix(1.3333333,0,0,-1.3333333,0,2666.6667)"
       style="fill:url(#linearGradient44);stroke:none" />
    <path
       id="path48"
       d="m 601.757,1284.035 v -147.336 c 0,-12.911 10.456,-23.381 23.371,-23.381 v 0 c 12.913,0 23.372,10.47 23.372,23.381 v 0 147.336 c 0,12.897 -10.459,23.368 -23.372,23.368 v 0 c -12.915,0 -23.371,-10.471 -23.371,-23.368"
       transform="matrix(1.3333333,0,0,-1.3333333,0,2666.6667)"
       style="fill:url(#linearGradient48);stroke:none" />
    <path
       id="path52"
       d="M 677.411,1213.033 V 989.2 c 0,-12.918 10.46,-23.381 23.375,-23.381 v 0 c 12.908,0 23.368,10.463 23.368,23.381 v 0 223.833 c 0,12.913 -10.46,23.383 -23.368,23.383 v 0 c -12.915,0 -23.375,-10.47 -23.375,-23.383"
       transform="matrix(1.3333333,0,0,-1.3333333,0,2666.6667)"
       style="fill:url(#linearGradient52);stroke:none" />
    <path
       id="path56"
       d="M 753.079,1142.047 V 918.2 c 0,-12.905 10.467,-23.368 23.382,-23.368 v 0 c 12.898,0 23.367,10.463 23.367,23.368 v 0 223.847 c 0,12.911 -10.469,23.38 -23.367,23.38 v 0 c -12.915,0 -23.382,-10.469 -23.382,-23.38"
       transform="matrix(1.3333333,0,0,-1.3333333,0,2666.6667)"
       style="fill:url(#linearGradient56);stroke:none" />
    <path
       id="path60"
       d="M 828.744,1071.066 V 847.211 c 0,-12.898 10.463,-23.374 23.371,-23.374 v 0 c 12.895,0 23.385,10.476 23.385,23.374 v 0 223.855 c 0,12.918 -10.49,23.381 -23.385,23.381 v 0 c -12.908,0 -23.371,-10.463 -23.371,-23.381"
       transform="matrix(1.3333333,0,0,-1.3333333,0,2666.6667)"
       style="fill:url(#linearGradient60);stroke:none" />
    <path
       id="path64"
       d="m 1276.165,1399.759 v -223.834 c 0,-12.918 10.459,-23.381 23.375,-23.381 v 0 c 12.908,0 23.366,10.463 23.366,23.381 v 0 223.834 c 0,12.912 -10.458,23.381 -23.366,23.381 v 0 c -12.916,0 -23.375,-10.469 -23.375,-23.381"
       transform="matrix(1.3333333,0,0,-1.3333333,0,2666.6667)"
       style="fill:url(#linearGradient64);stroke:none" />
    <path
       id="path68"
       d="m 1350.141,1355.002 v -223.847 c 0,-12.905 10.467,-23.368 23.382,-23.368 v 0 c 12.898,0 23.368,10.463 23.368,23.368 v 0 223.847 c 0,12.912 -10.47,23.381 -23.368,23.381 v 0 c -12.915,0 -23.382,-10.469 -23.382,-23.381"
       transform="matrix(1.3333333,0,0,-1.3333333,0,2666.6667)"
       style="fill:url(#linearGradient68);stroke:none" />
    <path
       id="path72"
       d="m 1431.202,1307.086 v -223.853 c 0,-12.898 10.462,-23.375 23.37,-23.375 v 0 c 12.895,0 23.386,10.477 23.386,23.375 v 0 223.853 c 0,12.919 -10.491,23.381 -23.386,23.381 v 0 c -12.908,0 -23.37,-10.462 -23.37,-23.381"
       transform="matrix(1.3333333,0,0,-1.3333333,0,2666.6667)"
       style="fill:url(#linearGradient72);stroke:none" />
    <path
       id="path76"
       d="M 1502.822,797.85 V 574.003 c 0,-12.905 10.467,-23.368 23.382,-23.368 v 0 c 12.898,0 23.367,10.463 23.367,23.368 v 0 223.847 c 0,12.911 -10.469,23.381 -23.367,23.381 v 0 c -12.915,0 -23.382,-10.47 -23.382,-23.381"
       transform="matrix(1.3333333,0,0,-1.3333333,0,2666.6667)"
       style="fill:url(#linearGradient76);stroke:none" />
    <path
       id="path80"
       d="M 1207.029,883.912 V 657.867 c 0,-12.912 10.449,-23.374 23.388,-23.374 v 0 c 12.898,0 23.36,10.462 23.36,23.374 v 0 226.045 c 0,12.906 -10.462,23.376 -23.36,23.376 v 0 c -12.939,0 -23.388,-10.47 -23.388,-23.376"
       transform="matrix(1.3333333,0,0,-1.3333333,0,2666.6667)"
       style="fill:url(#linearGradient80);stroke:none" />
    <path
       id="path84"
       d="m 1207.029,1425.996 v -461.66 c 0,-12.898 10.449,-23.374 23.388,-23.374 v 0 c 12.898,0 23.36,10.476 23.36,23.374 v 0 461.66 c 0,12.92 -10.462,23.369 -23.36,23.369 v 0 c -12.939,0 -23.388,-10.449 -23.388,-23.369"
       transform="matrix(1.3333333,0,0,-1.3333333,0,2666.6667)"
       style="fill:url(#linearGradient84);stroke:none" />
    <path
       id="path88"
       d="m 1131.367,710.42 v -25.598 c 0,-12.899 10.463,-23.375 23.362,-23.375 v 0 c 12.925,0 23.388,10.476 23.388,23.375 v 0 25.598 c 0,12.906 -10.463,23.375 -23.388,23.375 v 0 c -12.899,0 -23.362,-10.469 -23.362,-23.375"
       transform="matrix(1.3333333,0,0,-1.3333333,0,2666.6667)"
       style="fill:url(#linearGradient88);stroke:none" />
    <path
       id="path92"
       d="M 1131.367,1114.176 V 777.938 c 0,-12.925 10.463,-23.374 23.362,-23.374 v 0 c 12.925,0 23.388,10.449 23.388,23.374 v 0 336.238 c 0,12.897 -10.463,23.367 -23.388,23.367 v 0 c -12.899,0 -23.362,-10.47 -23.362,-23.367"
       transform="matrix(1.3333333,0,0,-1.3333333,0,2666.6667)"
       style="fill:url(#linearGradient92);stroke:none" />
    <path
       id="path96"
       d="m 1131.367,1355.016 v -169.854 c 0,-12.918 10.463,-23.367 23.362,-23.367 v 0 c 12.925,0 23.388,10.449 23.388,23.367 v 0 169.854 c 0,12.911 -10.463,23.367 -23.388,23.367 v 0 c -12.899,0 -23.362,-10.456 -23.362,-23.367"
       transform="matrix(1.3333333,0,0,-1.3333333,0,2666.6667)"
       style="fill:url(#linearGradient96);stroke:none" />
    <path
       id="path100"
       d="M 1055.733,894.301 V 613.827 c 0,-12.898 10.449,-23.375 23.362,-23.375 v 0 c 12.884,0 23.361,10.477 23.361,23.375 v 0 280.474 c 0,12.912 -10.477,23.375 -23.361,23.375 v 0 c -12.913,0 -23.362,-10.463 -23.362,-23.375"
       transform="matrix(1.3333333,0,0,-1.3333333,0,2666.6667)"
       style="fill:url(#linearGradient100);stroke:none" />
    <path
       id="path104"
       d="M 1055.733,1284.035 V 965.262 c 0,-12.913 10.449,-23.375 23.362,-23.375 v 0 c 12.884,0 23.361,10.462 23.361,23.375 v 0 318.773 c 0,12.897 -10.477,23.368 -23.361,23.368 v 0 c -12.913,0 -23.362,-10.471 -23.362,-23.368"
       transform="matrix(1.3333333,0,0,-1.3333333,0,2666.6667)"
       style="fill:url(#linearGradient104);stroke:none" />
    <path
       id="path108"
       d="M 980.046,1212.871 V 989.01 c 0,-12.905 10.476,-23.375 23.387,-23.375 v 0 c 12.899,0 23.375,10.47 23.375,23.375 v 0 223.861 c 0,12.912 -10.476,23.367 -23.375,23.367 v 0 c -12.911,0 -23.387,-10.455 -23.387,-23.367"
       transform="matrix(1.3333333,0,0,-1.3333333,0,2666.6667)"
       style="fill:url(#linearGradient108);stroke:none" />
    <path
       id="path112"
       d="M 904.398,1141.876 V 918.029 c 0,-12.918 10.463,-23.374 23.375,-23.374 v 0 c 12.884,0 23.374,10.456 23.374,23.374 v 0 223.847 c 0,12.912 -10.49,23.382 -23.374,23.382 v 0 c -12.912,0 -23.375,-10.47 -23.375,-23.382"
       transform="matrix(1.3333333,0,0,-1.3333333,0,2666.6667)"
       style="fill:url(#linearGradient112);stroke:none" />
  </g>
</svg>
